<svg xmlns="http://www.w3.org/2000/svg" width="389" height="474" fill="none" viewBox="0 0 389 474">
  <path fill="#F43F5E"
    d="M189.591 473.943l-160.2-9.845c-11.992-.716-20.584-11.635-18.436-23.448L71.992 98.593c2.148-11.814 11.813-20.585 23.627-21.837l160.915-15.573c13.067-1.253 23.806 10.203 21.658 23.27l-60.857 367.294c-2.148 13.425-14.141 23.09-27.744 22.196z" />
  <path fill="#F43F5E"
    d="M180.82 472.869l-160.2-9.845C8.629 462.308.038 451.389 2.185 439.576L63.221 97.519c2.148-11.814 11.814-20.584 23.627-21.837l160.916-15.573c13.066-1.253 23.806 10.203 21.658 23.27l-60.858 367.294c-2.148 13.425-14.14 22.912-27.744 22.196z" />
  <path fill="#FF99B1"
    d="M342.273 279.555L95.62 283.851c-6.444.179-11.277-5.728-10.203-11.992l18.078-102.922c1.074-5.906 5.907-10.202 11.814-10.739l243.431-16.289c8.234-.537 15.036 6.802 13.604 15.036l-17.9 111.871c-.537 6.086-5.906 10.739-12.171 10.739zM315.066 445.483l-246.654-10.74c-6.086-.358-10.74-5.907-9.665-11.993l18.615-105.427c1.074-6.086 6.444-10.739 12.709-10.739l243.789-1.969c8.055 0 14.14 7.159 12.887 15.035L328.49 434.743c-1.074 6.444-6.981 11.098-13.424 10.74z" />
  <path stroke="#F43F5E" stroke-linecap="round" stroke-linejoin="round" stroke-miterlimit="10" stroke-width="1.8"
    d="M59.463 118.103l206.917-16.467" />
  <path fill="#22272E"
    d="M164.711 93.223l-17.721 1.61c-1.611.18-2.506-1.073-2.327-2.863.358-1.79 1.79-3.222 3.401-3.4l17.721-1.612c1.61-.179 2.684 1.074 2.326 2.864-.358 1.79-1.969 3.222-3.4 3.4zM176.524 92.149c-1.611.179-2.685-1.074-2.327-2.864.358-1.79 1.79-3.222 3.401-3.4 1.611-.18 2.685 1.073 2.327 2.863-.179 1.79-1.79 3.401-3.401 3.401z" />
  <path fill="#22272e"
    d="M68.233 181.646l-56.025 3.043-8.233 5.37c-1.97 1.253-4.296-.358-3.938-2.685l8.77-48.686c.716-3.938 3.938-6.802 7.876-7.16l58.352-4.475c3.759-.358 6.98 3.043 6.265 6.802l-7.518 42.6c-.537 3.043-2.864 5.012-5.549 5.191z" />
  <path stroke="#fff" stroke-linecap="round" stroke-linejoin="round" stroke-miterlimit="10" stroke-width="1.8"
    d="M19.726 145.847l47.254-3.401M17.578 157.84l47.254-3.222M15.43 169.653l24.701-1.432" />
  <g>
    <path fill="#22272E"
      d="M329.027 268.637l-246.653 4.296c-6.444.179-11.277-5.728-10.203-11.993L90.25 158.019c1.074-5.907 5.906-10.203 11.813-10.74l243.432-16.288c8.233-.537 15.035 6.802 13.603 15.035l-17.899 111.871c-.716 6.086-5.907 10.74-12.172 10.74z" />
    <path fill="#F43F5E"
      d="M146.275 190.775c-1.253 7.338-7.697 13.603-14.32 13.961-6.623.358-10.919-5.37-9.666-12.708 1.253-7.339 7.697-13.604 14.32-13.962 6.623-.358 10.918 5.37 9.666 12.709z" />
    <path fill="#F43F5E"
      d="M141.621 237.85l-29.355.895c-3.938.179-7.16-3.401-6.444-7.339l.537-3.222c2.327-13.245 13.782-24.522 25.775-24.88 11.992-.537 20.047 10.024 17.72 23.448l-.716 4.654a8.018 8.018 0 01-7.517 6.444z" />
    <path fill="#fff"
      d="M302.536 192.027l-116.883 5.37c-2.506.179-4.475-2.148-3.938-4.475l1.253-7.875c.537-2.685 2.685-4.654 5.37-4.833l117.062-6.086c2.505-.179 4.474 1.969 3.937 4.475l-1.432 8.592c-.358 2.685-2.685 4.832-5.369 4.832z" />
    <g>
      <path fill="#F43F5E"
        d="M184.4 218.519l1.79 5.548 5.549.895-4.833 4.833-.358 6.265-4.654-2.506-5.728 2.864 1.79-6.265-3.222-4.475 5.907-1.432 3.759-5.727zM211.249 217.624l1.969 5.548 5.549.895-4.833 4.833-.179 6.265-5.012-2.506-5.728 2.864 1.79-6.265-3.222-4.654 5.907-1.253 3.759-5.727zM238.814 216.55l1.969 5.548 5.727 1.074-5.011 4.833-.179 6.444-5.012-2.685-5.907 3.043 1.79-6.444-3.401-4.654 6.265-1.432 3.759-5.727zM266.916 215.476l1.968 5.728 5.907.894-5.012 5.012-.179 6.444-5.19-2.685-6.086 3.043 1.969-6.623-3.58-4.475 6.265-1.431 3.938-5.907zM295.734 214.402l1.969 5.728 6.085 1.074-5.19 4.832-.179 6.623-5.37-2.685-6.086 3.043 1.969-6.623-3.58-4.654 6.265-1.431 4.117-5.907z" />
    </g>
  </g>
  <g>
    <path fill="#22272E"
      d="M301.641 434.564L55.167 423.645c-6.086-.358-10.74-5.907-9.666-11.992l18.615-105.428c1.074-6.085 6.444-10.739 12.709-10.739l243.789-1.969c8.055 0 14.141 7.16 12.888 15.035l-18.258 115.093c-1.253 6.623-6.98 11.277-13.603 10.919z" />
    <path fill="#F43F5E"
      d="M119.963 343.098c-1.253 7.518-7.697 13.604-14.499 13.425-6.622-.179-10.918-6.265-9.665-13.783 1.253-7.518 7.696-13.424 14.319-13.424 6.802.179 11.277 6.264 9.845 13.782z" />
    <path fill="#F43F5E"
      d="M114.771 391.426l-29.355-.895c-3.758-.179-6.623-3.579-6.085-7.338l.715-3.759c2.327-13.604 13.783-24.343 25.776-24.164 11.992.179 20.047 11.455 17.541 25.238l-.716 4.475c-.537 3.758-3.938 6.443-7.876 6.443z" />
    <path fill="#fff"
      d="M275.866 354.196l-116.883-1.611c-2.327 0-4.117-2.148-3.759-4.475l1.432-8.234c.537-2.864 2.864-4.833 5.728-4.833l117.062.895c2.327 0 4.116 2.148 3.758 4.475l-1.432 8.95c-.536 2.685-3.042 4.833-5.906 4.833z" />
    <g>
      <path fill="#F43F5E"
        d="M157.909 374.243l1.79 5.728 5.549 1.253-4.833 4.654-.179 6.443-4.833-3.043-5.728 2.685 1.79-6.444-3.043-4.653 5.728-1.074 3.759-5.549zM184.937 374.78l1.79 5.728 5.728 1.432-5.012 4.653-.179 6.444-5.012-2.864-5.728 2.685 1.79-6.444-3.222-5.011 6.086-.895 3.759-5.728zM212.502 375.496l1.79 5.728 5.907 1.432-5.012 4.653-.358 6.623-5.012-3.043-5.907 2.685 1.969-6.444-3.4-5.011 6.085-.895 3.938-5.728z" />
      <path fill="#63737A"
        d="M240.604 376.033l1.968 5.907 5.907 1.432-5.191 4.832-.179 6.623-5.19-3.043-6.086 2.685 1.969-6.623-3.401-5.011 6.265-1.074 3.938-5.728zM269.243 376.749l2.148 5.907 5.907 1.432-5.191 4.832-.179 6.802-5.191-3.222-6.264 2.864 1.969-6.802-3.58-4.832 6.444-1.074 3.937-5.907z" />
    </g>
  </g>
</svg>