<?xml version="1.0" standalone="no"?>
<!DOCTYPE svg PUBLIC "-//W3C//DTD SVG 20010904//EN"
 "http://www.w3.org/TR/2001/REC-SVG-20010904/DTD/svg10.dtd">
<svg version="1.0" xmlns="http://www.w3.org/2000/svg"
 width="256.000000pt" height="256.000000pt" viewBox="0 0 256.000000 256.000000"
 preserveAspectRatio="xMidYMid meet">
<metadata>
Created by potrace 1.14, written by Peter Selinger 2001-2017
</metadata>
<g transform="translate(0.000000,256.000000) scale(0.100000,-0.100000)"
fill="#000000" stroke="none">
<path d="M1153 2532 c-47 -9 -81 -23 -98 -38 l-25 -23 0 -675 c0 -506 3 -682
12 -703 7 -15 28 -53 48 -83 54 -82 62 -110 65 -220 3 -86 8 -161 20 -290 1
-14 5 -43 8 -65 4 -22 9 -60 13 -85 3 -24 7 -47 9 -50 10 -17 15 -93 6 -104
-7 -8 -7 -24 -2 -44 5 -17 7 -40 4 -51 -3 -10 0 -29 7 -40 10 -20 18 -21 133
-20 67 0 128 5 135 11 15 13 16 58 1 58 -8 0 -8 4 -2 13 17 20 24 65 12 73
-10 6 -9 32 6 104 3 14 7 41 10 60 2 19 7 52 10 73 11 79 14 105 19 187 4 47
8 129 11 183 2 54 8 104 12 110 4 7 8 14 9 17 3 18 20 48 35 65 9 11 29 42 43
69 l26 49 0 673 c0 370 -3 680 -6 689 -7 17 -82 60 -91 51 -3 -2 -17 0 -32 6
-41 17 -314 17 -398 0z m257 -12 c0 -5 -5 -10 -11 -10 -5 0 -7 5 -4 10 3 6 8
10 11 10 2 0 4 -4 4 -10z m140 -5 c61 -10 99 -31 105 -58 3 -12 4 -321 3 -687
-3 -608 -4 -668 -20 -697 -10 -17 -23 -37 -31 -45 -20 -20 -59 -78 -53 -78 3
0 1 -11 -4 -25 -5 -13 -12 -66 -15 -117 -8 -124 -14 -213 -20 -268 -12 -117
-17 -167 -21 -185 -2 -11 -6 -35 -9 -54 -2 -18 -7 -42 -10 -52 -4 -10 -1 -35
7 -54 14 -40 2 -71 -26 -69 -9 1 -16 -1 -16 -5 0 -9 -59 -5 -68 4 -4 4 0 6 8
3 28 -9 38 17 37 93 -1 41 2 115 7 164 14 166 19 352 14 590 -1 24 10 64 27
100 15 34 31 88 35 125 5 51 10 532 10 1119 0 38 5 48 46 88 25 25 43 50 41
56 -6 19 -54 38 -112 44 -30 3 -53 9 -50 13 5 8 49 6 115 -5z m-190 -66 c58 0
115 3 128 5 39 8 13 -13 -31 -25 -54 -15 -150 -15 -204 0 -44 12 -61 34 -20
25 12 -3 69 -5 127 -5z m-263 -339 c-2 -11 -6 -22 -9 -26 -4 -3 -5 2 -3 13 2
10 4 21 4 26 1 4 3 7 6 7 3 0 4 -9 2 -20z m3 -55 c0 -8 -4 -15 -8 -15 -5 0 -9
7 -9 15 0 8 4 15 9 15 4 0 8 -7 8 -15z m0 -122 c1 -54 3 -254 4 -444 3 -371 3
-369 57 -459 48 -79 62 -149 64 -323 1 -86 0 -156 -2 -153 -8 8 -13 53 -17
171 -6 129 -23 213 -56 266 -11 19 -32 59 -47 89 l-27 55 1 320 c1 418 5 575
14 575 4 0 8 -44 9 -97z m127 -1425 c-3 -7 -5 -2 -5 12 0 14 2 19 5 13 2 -7 2
-19 0 -25z m130 -384 c-3 -3 -12 -4 -19 -1 -8 3 -5 6 6 6 11 1 17 -2 13 -5z
m-72 -72 c-6 -8 -54 11 -59 23 -3 9 0 12 8 9 8 -3 17 0 21 6 5 8 11 4 19 -12
7 -12 12 -24 11 -26z m54 21 c10 -20 9 -23 -10 -23 -14 0 -19 5 -16 14 4 11 1
13 -11 9 -13 -4 -12 -2 3 10 11 8 20 15 21 14 1 -1 7 -12 13 -24z m81 4 c11 3
20 10 20 15 0 6 6 5 15 -2 8 -6 19 -9 25 -5 5 3 10 2 10 -3 0 -15 -29 -23 -56
-16 -14 4 -24 2 -24 -5 0 -6 -9 -11 -20 -11 -13 0 -18 5 -14 15 5 11 2 14 -12
9 -17 -6 -17 -5 1 9 16 13 21 13 27 2 5 -7 17 -11 28 -8z"/>
</g>
</svg>
