<svg xmlns="http://www.w3.org/2000/svg" width="909" height="668" fill="none" viewBox="0 0 909 668">
  <rect width="909" height="668" fill="#FEFEFE" rx="41"/>
  <g opacity=".9">
    <path fill="#FEE7EB" d="M707.842 521.2l-520-14.9c-24.2-.7-44.1-19.2-46.5-43.3l-25.1-248c-2.8-28.1 19-52.6 47.2-53l578.8-8c29.201-.4 52.1 25.1 48.5 54.1l-33.7 270.9c-3.099 24.7-24.4 43-49.2 42.2z"/>
    <mask id="a" width="676" height="369" x="116" y="153" maskUnits="userSpaceOnUse" style="mask-type:alpha">
      <path fill="#EAF9F3" d="M707.843 521.2l-520-14.9c-24.2-.7-44.1-19.2-46.5-43.3l-25.1-248c-2.8-28.1 19-52.6 47.2-53l578.8-8c29.2-.4 52.1 25.1 48.5 54.1l-33.7 270.9c-3.1 24.7-24.4 43-49.2 42.2z"/>
    </mask>
    <g mask="url(#a)">
      <path stroke="#F43F5E" stroke-linecap="round" stroke-linejoin="round" stroke-miterlimit="10" stroke-width="1.8" d="M632.943 588.5h415.497c8.3 0 15-6.7 15-15V337.9c0-8.3-6.7-15-15-15H632.943c-8.3 0-15 6.7-15 15v235.6c0 8.3 6.8 15 15 15zM83.843 572.7h419.1c8.3 0 15-6.7 15-15V213.4c0-8.3-6.7-15-15-15h-419.1c-8.3 0-15 6.7-15 15v344.3c0 8.3 6.8 15 15 15zM655.543 322.8h20.3c2.2 0 3.999-1.6 4.299-3.8l1.601-14.4c.3-2.5-1.7-4.8-4.3-4.8h-23.5c-2.6 0-4.501 2.2-4.301 4.8l1.601 14.4c.3 2.2 2.1 3.8 4.3 3.8z"/>
      <path fill="#F43F5E" d="M668.043 299.9s8-.8 9.6-11.6c0 0-7.2 2.1-9.5 7.2 0 0-1-11.4-6.4-12.5 0 0-2.4 8.5 1.4 12.7 0 0-2.9-4.8-10.3-4.7 0 0 1.9 6.8 9.2 8.8"/>
      <path stroke="#F43F5E" stroke-linecap="round" stroke-linejoin="round" stroke-miterlimit="10" stroke-width="1.8" d="M169.843 303.1h20.3c2.2 0 4-1.6 4.3-3.8l1.6-14.4c.3-2.5-1.7-4.8-4.3-4.8h-23.5c-2.6 0-4.5 2.2-4.3 4.8l1.6 14.4c.2 2.1 2.1 3.8 4.3 3.8z"/>
      <path fill="#F43F5E" d="M182.343 280.1s8-.8 9.6-11.6c0 0-7.2 2.1-9.5 7.2 0 0-1-11.4-6.4-12.5 0 0-2.4 8.5 1.4 12.7 0 0-2.9-4.8-10.3-4.7 0 0 1.9 6.8 9.2 8.8"/>
      <path stroke="#F43F5E" stroke-linecap="round" stroke-linejoin="round" stroke-miterlimit="10" stroke-width="1.8" d="M636.143 372.6h90.2c2.3 0 4.2-1.9 4.2-4.2v-27.5c0-2.3-1.9-4.2-4.2-4.2h-90.2c-2.3 0-4.2 1.9-4.2 4.2v27.4c0 2.4 1.9 4.3 4.2 4.3z"/>
      <path fill="#F43F5E" d="M670.843 346.5h20.8c.8 0 1.5-.7 1.5-1.5s-.7-1.5-1.5-1.5h-20.8c-.8 0-1.5.7-1.5 1.5s.7 1.5 1.5 1.5z"/>
      <path stroke="#F43F5E" stroke-linecap="round" stroke-linejoin="round" stroke-miterlimit="10" stroke-width="1.8" d="M636.143 418.4h90.2c2.3 0 4.2-1.9 4.2-4.2v-27.4c0-2.3-1.9-4.2-4.2-4.2h-90.2c-2.3 0-4.2 1.9-4.2 4.2v27.4c0 2.3 1.9 4.2 4.2 4.2z"/>
      <path fill="#F43F5E" d="M670.843 392.3h20.8c.8 0 1.5-.7 1.5-1.5s-.7-1.5-1.5-1.5h-20.8c-.8 0-1.5.7-1.5 1.5s.7 1.5 1.5 1.5z"/>
      <path stroke="#F43F5E" stroke-linecap="round" stroke-linejoin="round" stroke-miterlimit="10" stroke-width="1.8" d="M172.943 450.8h90.2c2.3 0 4.2-1.9 4.2-4.2v-27.4c0-2.3-1.9-4.2-4.2-4.2h-90.2c-2.3 0-4.2 1.9-4.2 4.2v27.4c0 2.3 1.9 4.2 4.2 4.2z"/>
      <path fill="#F43F5E" d="M207.743 424.6h20.8c.8 0 1.5-.7 1.5-1.5s-.7-1.5-1.5-1.5h-20.8c-.8 0-1.5.7-1.5 1.5 0 .9.6 1.5 1.5 1.5z"/>
      <path stroke="#F43F5E" stroke-linecap="round" stroke-linejoin="round" stroke-miterlimit="10" stroke-width="1.8" d="M288.743 450.8h90.2c2.3 0 4.2-1.9 4.2-4.2v-27.4c0-2.3-1.9-4.2-4.2-4.2h-90.2c-2.3 0-4.2 1.9-4.2 4.2v27.4c0 2.3 1.9 4.2 4.2 4.2z"/>
      <path fill="#F43F5E" d="M323.543 424.6h20.8c.8 0 1.5-.7 1.5-1.5s-.7-1.5-1.5-1.5h-20.8c-.8 0-1.5.7-1.5 1.5 0 .9.6 1.5 1.5 1.5z"/>
      <path stroke="#F43F5E" stroke-linecap="round" stroke-linejoin="round" stroke-miterlimit="10" stroke-width="1.8" d="M751.143 372.6h90.2c2.3 0 4.2-1.9 4.2-4.2v-27.5c0-2.3-1.9-4.2-4.2-4.2h-90.2c-2.3 0-4.2 1.9-4.2 4.2v27.4c0 2.4 1.9 4.3 4.2 4.3z"/>
      <path fill="#F43F5E" d="M785.843 346.5h20.8c.8 0 1.5-.7 1.5-1.5s-.7-1.5-1.5-1.5h-20.8c-.8 0-1.5.7-1.5 1.5s.7 1.5 1.5 1.5z"/>
      <path stroke="#F43F5E" stroke-linecap="round" stroke-linejoin="round" stroke-miterlimit="10" stroke-width="1.8" d="M751.143 418.4h90.2c2.3 0 4.2-1.9 4.2-4.2v-27.4c0-2.3-1.9-4.2-4.2-4.2h-90.2c-2.3 0-4.2 1.9-4.2 4.2v27.4c0 2.3 1.9 4.2 4.2 4.2z"/>
      <path fill="#F43F5E" d="M785.843 392.3h20.8c.8 0 1.5-.7 1.5-1.5s-.7-1.5-1.5-1.5h-20.8c-.8 0-1.5.7-1.5 1.5s.7 1.5 1.5 1.5z"/>
      <path stroke="#F43F5E" stroke-linecap="round" stroke-linejoin="round" stroke-miterlimit="10" stroke-width="1.8" d="M41.642 303.2h455.001c2.5 0 4.6-2.1 4.6-4.6v-79.7c0-2.5-2.1-4.6-4.6-4.6h-455c-2.5 0-4.6 2.1-4.6 4.6v79.7c0 2.6 2.1 4.6 4.6 4.6zM41.642 402.2h455.001c2.5 0 4.6-2.1 4.6-4.6v-79.7c0-2.5-2.1-4.6-4.6-4.6h-455c-2.5 0-4.6 2.1-4.6 4.6v79.7c0 2.5 2.1 4.6 4.6 4.6z"/>
      <path stroke="#F43F5E" stroke-linecap="round" stroke-linejoin="round" stroke-miterlimit="10" stroke-width="1.8" d="M460.774 303.288h9.9v-50.3h-9.9v50.3zM450.431 303.203h10.3v-36.6h-10.3v36.6zM162.396 402.029h9.9v-50.3h-9.9v50.3zM152.053 402.043h10.3v-36.6h-10.3v36.6zM182.482 402.029h9.9v-50.3h-9.9v50.3z"/>
      <path stroke="#F43F5E" stroke-linecap="round" stroke-linejoin="round" stroke-miterlimit="10" stroke-width="1.8" d="M207.385 401.619l9.44-2.981-15.145-47.966-9.441 2.98 15.146 47.967zM172.239 402.043h10.3v-36.6h-10.3v36.6z"/>
      <path fill="#F43F5E" d="M381.443 259.5l-1.1-14.9c-.1-1 .7-1.8 1.7-1.8h8.6c1 0 1.7.8 1.7 1.8l-1.1 14.9s9 5.8 8.9 10.6c-.1 3.7-2.3 21.4-3.3 29.2-.3 2.2-2.1 3.8-4.3 3.8h-12.4c-2.2 0-4-1.6-4.3-3.8-1-7.8-3.2-25.5-3.3-29.2-.1-4.8 8.9-10.6 8.9-10.6zM337.243 259.5l-1.1-14.9c-.1-1 .7-1.8 1.7-1.8h8.6c1 0 1.7.8 1.7 1.8l-1.1 14.9s9 5.8 8.9 10.6c-.1 3.7-2.3 21.4-3.3 29.2-.3 2.2-2.1 3.8-4.3 3.8h-12.4c-2.2 0-4-1.6-4.3-3.8-1-7.8-3.2-25.5-3.3-29.2-.1-4.8 8.9-10.6 8.9-10.6z"/>
      <path stroke="#F43F5E" stroke-linecap="round" stroke-linejoin="round" stroke-miterlimit="10" stroke-width="1.8" d="M778.743 496.6h-932.9M365.443 402.2h-83.2c-2.7 0-4.901-2.2-4.901-4.9v-13.1c0-2.7 2.201-4.9 4.901-4.9h83.2c2.7 0 4.899 2.2 4.899 4.9v13.1c0 2.7-2.199 4.9-4.899 4.9zM353.743 358.2h-60v21h60v-21z"/>
      <path fill="#F43F5E" d="M286.743 388.4a1.5 1.5 0 10-.001-3.001 1.5 1.5 0 00.001 3.001z"/>
    </g>
    <path fill="#63737A" d="M375.842 379.7l42.201-15.7c1.6-.6 2.7-2.2 2.7-3.9l-83.8-6 12.899 23.2 21.801 2.9c1.4.2 2.899 0 4.199-.5z"/>
    <path fill="#22272E" d="M269.643 364.4l-7.6-59.3c-.2-1.7 1.2-3.1 2.8-3l101.4 7.2c1.5.1 2.7 1.3 2.8 2.8l6 65.3c.2 1.7-1.3 3.1-3 2.9l-99.8-13.2c-1.4-.3-2.5-1.4-2.6-2.7z"/>
    <path fill="#22272E" d="M420.743 360.2c0 1.8-1.1 3.3-2.7 3.9l-42.201 15.7c-1 .4-2.199.6-3.299.5-1.6-1.2-2.6-3.1-2.6-3.1l50.8-17z"/>
    <path fill="#63737A" d="M318.087 344.715c2.666-1.969 2.965-6.085.669-9.195-2.297-3.11-6.319-4.035-8.985-2.067-2.665 1.968-2.965 6.085-.668 9.195 2.296 3.11 6.319 4.035 8.984 2.067z"/>
    <g>
      <path fill="#EFA9B3" d="M552.842 96h-30.599l-3.101 2c-1 .7-2.3-.1-2.3-1.3V75c0-2.2 1.8-4 4-4h32.101c2.2 0 4 1.8 4 4v16.9c-.1 2.3-1.901 4.1-4.101 4.1z"/>
      <path stroke="#22272E" stroke-linecap="round" stroke-linejoin="round" stroke-miterlimit="10" stroke-width="1.8" d="M536.443 81h10.699M536.443 86.5h6.5M530.943 81h-5.5v5.5h5.5V81z"/>
    </g>
    <g>
      <path fill="#63737A" d="M370.042 257.9l-169 25.6c-3.8.6-7.2-2.2-7.5-6l-10.1-152.2c-.3-4.2 3.2-7.7 7.4-7.4l169.301 10.8c3.199.2 5.8 2.7 6.1 5.9l9.699 115.9c.3 3.5-2.299 6.8-5.9 7.4z"/>
      <path fill="#22272E" d="M374.643 257.7l-169.801 25.7c-3.8.6-7.2-2.2-7.5-6l-10.2-152.9c-.3-4.2 3.2-7.8 7.5-7.5l170.001 10.8c3.199.2 5.8 2.7 6.1 6l9.799 116.4c.4 3.7-2.2 7-5.899 7.5z"/>
      <path fill="#fff" d="M263.942 205.3l-47.8 2.6c-1.5.1-2.8-1.1-2.9-2.6l-2.8-40.4c-.1-1.6 1.2-3 2.8-3l47.8.3c1.5 0 2.7 1.1 2.8 2.6l2.8 37.5c.1 1.6-1.1 2.9-2.7 3z"/>
      <path fill="#F43F5E" d="M315.343 189.7l-40 1.4c-1.5.1-2.8-1.1-2.9-2.6l-1.7-23.3c-.1-1.6 1.2-3 2.8-3l40 .3c1.4 0 2.6 1.1 2.8 2.6l1.7 21.6c.1 1.6-1.1 3-2.7 3z"/>
      <path fill="#EFA9B3" d="M360.643 188.2l-33.7 1.2c-1.5.1-2.8-1.1-2.9-2.6l-1.7-21.1c-.1-1.6 1.2-3 2.8-3l33.7.2c1.4 0 2.6 1.1 2.8 2.6l1.6 19.7c.2 1.5-1 2.9-2.6 3z"/>
      <path stroke="#63737A" stroke-linecap="round" stroke-linejoin="round" stroke-miterlimit="10" stroke-width="1.8" d="M266.943 244.5l-47.8 5.2c-1.6.2-3-1-3.1-2.6l-1.8-26.1c-.1-1.5 1.099-2.9 2.599-3l47.901-3.2c1.5-.1 2.9 1 3 2.6l1.8 24.1c0 1.5-1.1 2.8-2.6 3z"/>
      <path fill="#EFA9B3" d="M319.842 243.5l-39.9 4.7c-1.6.2-3-1-3.1-2.6l-3.2-43.1c-.1-1.6 1.1-2.9 2.6-3l40-1.9c1.5-.1 2.8 1.1 2.9 2.6l3.2 40.3c.1 1.5-1 2.8-2.5 3z"/>
      <path fill="#fff" d="M311.542 205.1l-28.7 1.7c-.7 0-1.2.6-1.1 1.3l1.3 17.8c.1.7.6 1.2 1.3 1.1l28.7-2.5c.7-.1 1.2-.6 1.1-1.3l-1.3-17c-.1-.6-.7-1.1-1.3-1.1z"/>
      <path fill="#F43F5E" d="M364.642 233.6l-33.7 3.7c-1.6.2-3-1-3.1-2.6l-2.7-34.7c-.1-1.6 1.1-2.9 2.6-3l33.7-1.6c1.5-.1 2.8 1.1 2.9 2.6l2.7 32.6c.2 1.5-.9 2.8-2.4 3z"/>
      <path stroke="#63737A" stroke-linecap="round" stroke-linejoin="round" stroke-miterlimit="10" stroke-width="1.8" d="M242.542 228l.6 7.4M239.342 232l7-.6"/>
      <path fill="#22272E" d="M290.443 236.2c-.2-2-1.7-3.6-3.5-3.4-1.8.2-3.2 2-3 4.1.2 2.1 1.8 3.6 3.6 3.4 1.7-.3 3-2.1 2.9-4.1z"/>
      <path stroke="#22272E" stroke-linecap="round" stroke-linejoin="round" stroke-miterlimit="10" stroke-width="1.8" d="M296.243 235.6l18.7-1.9"/>
      <path fill="#fff" d="M337.843 206.4c-.2-1.9-1.5-3.3-3.1-3.3-1.6.1-2.7 1.7-2.6 3.6.2 1.9 1.5 3.4 3.1 3.3 1.7-.1 2.8-1.7 2.6-3.6z"/>
      <path stroke="#22272E" stroke-linecap="round" stroke-linejoin="round" stroke-miterlimit="10" stroke-width="1.8" d="M342.943 206.1l16.1-1"/>
      <path fill="#fff" d="M338.743 217.1c-.2-1.9-1.5-3.3-3.1-3.2-1.6.1-2.701 1.8-2.601 3.7.2 1.9 1.601 3.4 3.101 3.2 1.6-.2 2.8-1.8 2.6-3.7z"/>
      <path stroke="#22272E" stroke-linecap="round" stroke-linejoin="round" stroke-miterlimit="10" stroke-width="1.8" d="M343.742 216.7l16.2-1.3"/>
      <path fill="#fff" d="M339.643 227.8c-.2-1.9-1.5-3.3-3.1-3.2-1.6.1-2.7 1.8-2.6 3.7.2 1.9 1.6 3.3 3.1 3.2 1.6-.2 2.7-1.8 2.6-3.7z"/>
      <path stroke="#22272E" stroke-linecap="round" stroke-linejoin="round" stroke-miterlimit="10" stroke-width="1.8" d="M344.643 227.3l16.1-1.6"/>
      <path fill="#F43F5E" d="M227.143 178.1l-6.5.1c-.6 0-1.1-.5-1.2-1.1l-.5-6.8c0-.7.5-1.2 1.2-1.2h6.5c.6 0 1.099.5 1.199 1.1l.5 6.7c-.1.6-.599 1.2-1.199 1.2z"/>
      <path stroke="#22272E" stroke-linecap="round" stroke-linejoin="round" stroke-miterlimit="10" stroke-width="1.8" d="M234.143 169.1l22.5-.1M234.543 174.9l22.5-.2"/>
      <path fill="#22272E" d="M335.042 176.5l-5.1.1c-.3 0-.6-.3-.7-.6l-.5-6.5c0-.4.3-.7.7-.7h5.1c.3 0 .6.3.7.6l.5 6.4c0 .3-.3.7-.7.7z"/>
      <path stroke="#22272E" stroke-linecap="round" stroke-linejoin="round" stroke-miterlimit="10" stroke-width="1.8" d="M339.842 168.7h16.7M340.342 173.8l16.6-.2M329.742 182.1l27.8-.7"/>
      <g>
        <path fill="#F43F5E" d="M228.242 193.6l-6.5.2c-.6 0-1.2-.5-1.2-1.1l-.5-6.8c0-.7.5-1.2 1.1-1.2l6.5-.2c.6 0 1.1.5 1.2 1.1l.5 6.7c0 .7-.5 1.3-1.1 1.3z"/>
        <path stroke="#22272E" stroke-linecap="round" stroke-linejoin="round" stroke-miterlimit="10" stroke-width="1.8" d="M235.242 184.4l22.5-.6M235.642 190.3l22.5-.7"/>
      </g>
      <path fill="#fff" d="M244.643 145.2l-33.701-1c-1.1 0-2-.9-2.1-2l-.4-5.3c-.1-1.3 1.001-2.4 2.201-2.3l33.699 1.4c1.1 0 2 .9 2.1 2l.4 4.9c.1 1.2-.899 2.3-2.199 2.3z"/>
      <path stroke="#22272E" stroke-linecap="round" stroke-linejoin="round" stroke-miterlimit="10" stroke-width="1.8" d="M278.742 168.9l31.8-.1M279.143 174.5l31.8-.4M279.742 183.3l17.1-.4"/>
      <path fill="#63737A" d="M359.643 144.7c-.1-1.5-1.2-2.8-2.5-2.9-1.2-.1-2.2 1.2-2 2.7.1 1.6 1.2 2.9 2.5 2.9 1.2.1 2.1-1.2 2-2.7zM350.743 144.4c-.1-1.6-1.3-2.9-2.5-2.9-1.3-.1-2.2 1.2-2.1 2.8.1 1.6 1.3 2.9 2.6 2.9 1.2 0 2.1-1.3 2-2.8zM341.542 144c-.1-1.6-1.3-2.9-2.6-3-1.3-.1-2.3 1.2-2.2 2.8.1 1.6 1.3 2.9 2.6 3 1.4.1 2.3-1.2 2.2-2.8z"/>
      <g>
        <path fill="#F43F5E" d="M400.243 157.8l-44.401-.8a3.4 3.4 0 01-3.4-3.2l-4-48.9c-.1-1.7 1.3-3 2.9-2.9l44.6 4.7c1.7.2 3 1.5 3.1 3.2l3.9 44.9c.1 1.7-1.099 3-2.699 3z"/>
        <path fill="#F43F5E" d="M402.643 157l-44.4-.8c-1.8 0-3.301-1.4-3.401-3.2l-4-48.9c-.1-1.7 1.301-3 2.901-2.9l44.599 4.7c1.7.2 3 1.5 3.1 3.2l3.9 44.9c.1 1.7-1.199 3-2.699 3z"/>
        <path stroke="#63737A" stroke-linecap="round" stroke-linejoin="round" stroke-miterlimit="10" stroke-width="1.8" d="M370.242 110.3l23.5 2.2M370.642 115.1l23.5 2M371.542 126.1l23.6 1.6M371.942 130.8l23.5 1.4"/>
        <g>
          <path stroke="#63737A" stroke-linecap="round" stroke-linejoin="round" stroke-miterlimit="10" stroke-width="1.8" d="M372.942 141.9l23.5 1M373.342 146.6l23.5.8"/>
        </g>
        <path stroke="#fff" stroke-linecap="round" stroke-linejoin="round" stroke-miterlimit="10" stroke-width="1.8" d="M362.142 113l1.2 1.5 1.7-2.3M363.442 129l1.2 1.4 1.8-2.3M364.742 144.7l1.3 1.4 1.7-2.4"/>
      </g>
    </g>
    <g>
      <path fill="#EFA9B3" d="M421.342 228.1s-6.2 12.9-6.7 21.1c-.5 8.2 8.2 41.1 22.4 66.2 0 0 13.4-4.4 13.4-8.5s-7.9-52.6-7.4-54c.5-1.4 6-11.7 6-16.1 0-4.3-25.6-13.5-27.7-8.7z"/>
      <path fill="#E26E85" d="M449.042 236.8c0-4.4-25.5-13.5-27.6-8.7 0 0-.8 1.8-1.9 4.4 8.1 6.3 16.8 11.7 26.7 13.5 1.4-3.2 2.8-7 2.8-9.2z"/>
      <path fill="#fff" d="M447.942 173.3s-10 3.4-17.6 20.6c-7.7 17.3-15.7 31.6-15.7 31.6s12.5 12.4 28.5 18.7c16 6.5 16.6-69.3 4.8-70.9z"/>
      <path stroke="#22272E" stroke-linecap="round" stroke-linejoin="round" stroke-miterlimit="10" stroke-width="1.8" d="M417.442 220.4s17.1 14 33 20.1"/>
      <path fill="#EFA9B3" d="M481.342 546.3s-.9 21-.7 23c.2 2.1-6.999 6.3-15.899 6-8.8-.3-9.701-2.9-9.701-2.9s-2-22.7-2.2-25.9c-.2-3.2 26.7-4.5 28.5-.2z"/>
      <path fill="#22272E" d="M480.842 558.4c.2-6 .5-12.1.5-12.1-1.8-4.3-28.7-3-28.5.2.1 1.5.6 7.1 1 12.7 7.9 3.9 18.3 2.9 27-.8zM480.642 568.7s.801 5.9 1.101 12.3c.3 6.5 1.3 18.1.2 20.1-1.2 2-7.2 3.7-21.5 4.8-14.3 1.1-27.501.1-29.801-1.7-2.3-1.8-1.599-4.5.601-6.6 2.2-2.1 10.9-11.4 14.5-15.2 4.7-5 8.099-10.1 8.099-10.7.3-2.4.8-2.4.8-2.4s.6 1.5 1.4 1.4c.8-.1 1.901-4.6 6.701-3.5 4.9 1.1 6.799 4.4 8.599 4.4 1.8-.1 6.7-.7 9.3-2.9z"/>
      <path fill="#EFA9B3" d="M518.842 550.5s2.7 21.6 3.2 22.9c.5 1.3 5.5 4.9 13.3 4.5 7.8-.4 10.801-2.7 11.101-3.2.3-.5-.201-25.2-.401-26.8-.2-1.6-25.4-1.2-27.2 2.6z"/>
      <path fill="#22272E" d="M546.342 559c-.1-5.5-.299-10.6-.399-11.3-.3-1.6-25.301-1.1-27.201 2.7 0 0 .6 4.8 1.3 10 9 2.1 18 1.5 26.3-1.4zM521.642 571.5c-.2 1.6-.3 3.1-.2 4.7.1 1.3.2 3.1.2 5.3.1 4.6.5 20.5 1.6 22.8 1.1 2.3 13.7 4.2 23.2 4.3 9.5.1 16.5-2.4 17.6-5 1.1-2.6.5-6.4-2.8-10.6-3.3-4.2-10.9-10.7-11.8-13.8-.9-3.1-2.3-6.7-2.9-7.7 0 0-1.3 1.8-2.7 2.2-1.3.4-3.2-5-7.3-5.2-4.1-.3-5.9 1.4-8.5 5.2-.1 0-3.7.3-6.4-2.2zM433.942 289.7s-2.4 10.9-3.6 25.6c-1.2 14.7 3 105.8 3.6 112.9.6 7.1 2.9 47.6 5.5 67.3 2.1 16.2.6 48.9 5.5 53.5 4.9 4.6 19.9 7.1 29.2 4.6s13.6-7.1 14.7-10.9c1.1-3.8-3.3-32.7-3-47.4.3-14.7 0-58.1-.5-68.4 0 0 4.1-52.6 9-64.6 4.9-12 12-56.2-1.6-69-13.8-12.8-57.6-5.7-58.8-3.6z"/>
      <path fill="#22272E" d="M455.842 295.5s-.1 19.8.7 34.6c.3 5.6.8 10.5 1.5 13.4 2.5 10.4 7.9 11.2 12 13.6 4.1 2.5 18.8 61.3 24.8 76.6 0 0 4.6 35.2 8.2 56.2 3.5 21 3 46.4 5.7 55.1 2.7 8.7 18.5 10.4 26.2 9.7 7.7-.7 18-3.7 17.7-12.7-.3-9-1.8-34.6-3.1-56.4-1.4-21.8-3.8-54.3-4.4-61.9 0 0-3-36-4.6-54.5-1.6-18.5-.7-37.4-3.1-69.3-2.6-32-81.7-22.2-81.6-4.4z"/>
      <path stroke="#63737A" stroke-linecap="round" stroke-linejoin="round" stroke-miterlimit="10" stroke-width="1.8" d="M456.542 330.1c.3 5.6.8 10.5 1.5 13.4 2.5 10.4 7.9 11.2 12 13.6 4.1 2.5 18.8 61.3 24.8 76.6M470.042 357.1s-11.7-6-16.9-3.8M452.142 442.8c7.291 0 13.2-6.492 13.2-14.5s-5.909-14.5-13.2-14.5c-7.29 0-13.2 6.492-13.2 14.5s5.91 14.5 13.2 14.5zM521.142 441.9c7.512 0 13.6-6.492 13.6-14.5s-6.088-14.5-13.6-14.5c-7.511 0-13.6 6.492-13.6 14.5s6.089 14.5 13.6 14.5zM457.942 560.7s-.3-2.1 0-3M466.242 562v-4.3M476.342 560s.1-2.5 0-3.6M524.342 561.3s-.5-2.7-.5-3.5M534.342 561.7s.2-3.4 0-4.3M542.943 560.1s.2-2.3 0-3.4"/>
      <path stroke="#fff" stroke-linecap="round" stroke-linejoin="round" stroke-miterlimit="10" stroke-width="1.8" d="M448.542 580.9s7.6-6.1 22.5 2.3M442.842 588.6s9.4-7.5 23.4 1.6M551.742 585.3s-9.1-4-21.4 2.5M555.842 592.1s-10.5-4.6-23.2 3.7"/>
      <path fill="#F43F5E" d="M496.342 169.8s5.001 1.5 15.601 1.7c10.6.2 22.699 3.3 27.399 9.2 4.7 5.9 6.2 49.4 5.5 69.1-.7 19.6-14.8 49-14.8 49s-33.7 3.8-61.3 2.5c-27.6-1.4-34.2-7.4-36.1-9.3-1.9-1.9-3-6.5-1.9-8.5 1.1-1.9 6.5-17.5 8.5-32.4 1.9-15-2.2-35.7-.3-54 1.9-18.3 9-23.7 9-23.7s8.9-3 24.3-3.5c15.3-.7 24.1-.1 24.1-.1z"/>
      <path fill="#F43F5E" d="M494.842 222.5a6.5 6.5 0 100-13 6.5 6.5 0 000 13z"/>
      <path fill="#fff" d="M473.042 166c-2.7.1-4.8 1.7-6.7 3.6-1.2 1.2-2.3 2.8-2.8 4.9-3.8 18.4 2 40.6 9.4 40.4 9.3-.3 21.8-17.2 31.6-36.4 4-7.9-3.7-13.4-8.2-13.4-3.5-.1-17.7.6-23.3.9z"/>
      <path fill="#22272E" d="M515.743 127.1s-.001 8.1-4.701 16.1c-4.7 8-10.399 12.2-12.299 15.8-1.9 3.6-1.4-5.8 0-10.3 1.4-4.4 9.7-28.5 17-21.6z"/>
      <path fill="#EFA9B3" d="M470.942 157.5s-1.1 9.7-1.8 13.4c-.7 3.7-2.3 13.4 10.1 14 11.1.6 17.1-8 19.3-12.2.7-1.3 1-2.7.9-4.1-.3-4.4-.9-15.2-.6-24 .4-11.2-27.9 5-27.9 12.9z"/>
      <path fill="#E26E85" d="M492.943 158.2c-5.9 4.7-14.601 6.9-22.801 5.7-.3 2.6-.7 5.4-1 7-.1.5-.2 1.1-.3 1.8 10.1.5 21.601-4.5 24.101-14.5z"/>
      <g>
        <path fill="#22272E" d="M459.142 121.5s-2.7 3.9-2.3 6.9c.4 3 6.1 13.1 9 12.8 2.9-.3 5.9-12.7 2.5-16.8-3.5-4.1-8.1-4.8-9.2-2.9z"/>
        <path fill="#EFA9B3" d="M461.443 127.2s.3 7-1 15-2.201 20 9.699 23.3c11.9 3.3 25.901-1.2 30.301-17.6 4.4-16.4 7.599-33-7.601-37.8-15.2-4.8-33.199 1.4-31.399 17.1z"/>
        <path fill="#22272E" d="M466.542 135.2c.3 1.1.2 2.4-.2 3.6-.2.6-.5 1.1-.9 1.6-.2.3-.4.5-.6.7-.1.1-.2.3-.3.4-.1.3-.1.6 0 .9.1.4.4.8.7 1.2.6.8 1.5 1.5 2.4 2.1-1.2.1-2.4-.3-3.4-1.1-.5-.4-1-.9-1.3-1.6-.3-.7-.4-1.6 0-2.3.2-.4.4-.7.7-.9.2-.2.4-.3.5-.5.3-.4.7-.8.9-1.2.6-.9 1.1-1.8 1.5-2.9zM499.842 139.8s-1.5-2.3-2.2-6.9c-.6-4.6-5.5-4.3-7.8-12.8s-7.9 2-16.8 5.8-15.9-2.3-19.5-9.1c-3.5-6.7 2.5-12.8 6.6-15.6 4.1-2.8 8.4 1.7 16.4-.3 8-2 20.9-4.5 27.1 4.5 6.2 9 12.6 11.2 12.2 21-.5 9.8-11.9 20.7-12.6 20.8-.8.2-3.4-7.4-3.4-7.4z"/>
        <path fill="#22272E" d="M478.742 130.4c-.3-.8-.6-2.3.5-3.1 1.1-.8 3.6-.5 6 1 2.1 1.3 2.7 3.4 1.3 3.2-1.4-.2-2.5-.8-4.2-.9-1.8-.1-3.3.5-3.6-.2zM466.742 129.3c.2-.7.4-2-.3-2.9-.6-.8-2.2-.7-3.7.4-1.3 1-1.7 2.9-.8 2.8.9-.1 1.5-.5 2.6-.4 1.1.1 2 .7 2.2.1zM459.842 147.3s-.099 1.2 1.601 1.5c1.7.2 1.899-2.3 4.799-2.7 1.8-.2 8.101.3 10.701 2.7 2.6 2.4 6.199 5.2 11.399 3.6 5.2-1.6 8.3-8.9 9.3-19.5.9-9.7 4.5-.3 4.5 2 0 1.6-1.5-.7-3.3 5.8-.8 2.9 0 11.1-3.1 17.1-2.4 4.6-9.1 9.3-17.6 9.9-8.5.6-15.5-2.9-17.6-8.5-2.1-5.4-1.3-11.5-.7-11.9zM463.942 136.8c.8.1 1.5-.5 1.6-1.3l.1-.8c.1-.8-.5-1.5-1.3-1.6-.8-.1-1.5.5-1.6 1.3l-.1.8c-.1.8.5 1.5 1.3 1.6z"/>
        <path fill="#22272E" d="M479.842 137.8c.8.1 1.5-.5 1.6-1.3l.1-.8c.1-.8-.5-1.5-1.3-1.6-.8-.1-1.5.5-1.6 1.3l-.1.8c-.1.9.5 1.6 1.3 1.6z"/>
        <path fill="#EFA9B3" d="M498.742 140.7s2.7-6 7.4-5.3c4.8.8 2.4 13.4-6.3 13.3"/>
        <path fill="#22272E" d="M505.842 139.9c-.3-.3-.6-.6-.8-.7-.3-.1-.2.1-.4.2 0 .1-.2.9-.3 1.6-.1.7-.3 1.5-.7 2.2-.2.4-.4.8-.8 1.1-.4.3-.9.4-1.3.2.4-.2.5-.5.6-.8.1-.3.1-.6.2-.9.1-.7.1-1.4.3-2.2l.301-1.2.299-.6c.1-.1.1-.2.3-.3.1-.1.301-.2.401-.3.2-.1.499-.2.899-.2.4.1.6.3.8.5.3.5.3 1 .2 1.4z"/>
        <path stroke="#EFA9B3" stroke-linecap="round" stroke-linejoin="round" stroke-miterlimit="10" stroke-width="1.8" d="M470.943 152.9s2.699 1.2 5.399.7"/>
        <path stroke="#22272E" stroke-linecap="round" stroke-linejoin="round" stroke-miterlimit="10" stroke-width="1.8" d="M466.115 133.925c.478-5.004-1.809-9.315-5.108-9.63-3.299-.315-6.36 3.486-6.838 8.489-.477 5.003 1.81 9.315 5.109 9.629 3.298.315 6.36-3.485 6.837-8.488zM488.353 135.872c.478-5.003-2.567-9.386-6.8-9.791-4.234-.404-8.053 3.325-8.531 8.328-.477 5.003 2.567 9.386 6.801 9.791 4.233.404 8.052-3.325 8.53-8.328zM465.842 135.4s1.701-3.2 7.101.6M488.242 135.9l11.3 2.4"/>
      </g>
      <g>
        <path fill="#EFA9B3" d="M531.542 246.3l5.3 10.7s-5.6 7.6-11.6 22-10.4 32.2-14.5 37.3c0 0 4 9.6 13.8 13.8 0 0 19.1-28 27.8-40.2 8.7-12.2 17-27.8 16.4-35.6-.9-11.5-9.6-28.5-10.4-33.1-.8-4.6-26.6 11.8-26.8 25.1z"/>
        <path fill="#E26E85" d="M558.242 221.2c-.7-4.5-26.5 11.8-26.7 25.1l.8 1.5c9.1-6.9 19.3-11.6 30.2-14.9-2.1-5.2-4-9.7-4.3-11.7z"/>
        <path fill="#22272E" d="M515.742 305.9c1.4 2.4 6.2 8.8 17.4 11.4.4.1.5.5.3.8l-5.1 6.9c-.1.2-.4.2-.6.2-12.5-3.8-15.8-10.1-16.3-11.3-.1-.1-.1-.3 0-.4l3.4-7.5c.2-.5.7-.5.9-.1z"/>
        <path fill="#fff" d="M522.816 318.039c1.378-2.265.735-5.172-1.436-6.492-2.17-1.32-5.047-.554-6.424 1.711-1.378 2.265-.735 5.171 1.436 6.492 2.171 1.32 5.047.554 6.424-1.711zM534.443 179.9c2.4-.4 4.799.5 6.299 2.4 2.3 2.9 6.1 8.5 10.8 18.1 7.9 16.1 13.401 26.7 13.401 26.7s-27.401 14.8-33.401 19.2c0 0-11.1-18.7-14.7-26.5-3.5-7.4-2.499-36.2 17.601-39.9z"/>
        <path stroke="#22272E" stroke-linecap="round" stroke-linejoin="round" stroke-miterlimit="10" stroke-width="1.8" d="M528.142 240.5s15-11.2 33.7-19.4"/>
        <path stroke="#63737A" stroke-linecap="round" stroke-linejoin="round" stroke-miterlimit="10" stroke-width="1.8" d="M506.842 309.7s4.7 17.5 24 23.6"/>
        <path stroke="#E26E85" stroke-linecap="round" stroke-linejoin="round" stroke-miterlimit="10" stroke-width="1.8" d="M536.842 257s2.6-3.4 8.2-4.7"/>
      </g>
    </g>
    <g>
      <path fill="#63737A" d="M685.043 282l-88.5-10.9c-2.9-.4-4.9-2.9-4.6-5.8l9.4-87.8c.4-3.4 3-6.1 6.4-6.6l91.6-12.4c3.4-.5 6.4 2.4 6 5.9l-13.6 112.5c-.4 3.2-3.4 5.5-6.7 5.1z"/>
      <path fill="#22272E" d="M682.043 281.7l-88.5-11c-2.9-.4-4.9-2.9-4.6-5.8l9.4-87.8c.4-3.4 3-6.1 6.4-6.6l91.6-12.4c3.4-.5 6.4 2.4 6 5.9l-13.6 112.5c-.4 3.2-3.4 5.6-6.7 5.2z"/>
      <path fill="#fff" d="M678.743 200.1l-69.3 3.5c-1.2.1-2.2-1-2-2.1l1.699-15.5c.1-.9.8-1.6 1.7-1.7l69.901-6.9c1.199-.1 2.299.9 2.099 2.2l-2.3 19c0 .7-.799 1.4-1.799 1.5z"/>
      <path stroke="#22272E" stroke-linecap="round" stroke-linejoin="round" stroke-miterlimit="10" stroke-width="1.8" d="M627.142 189.7l45.901-3.7M626.543 195.6l24.7-1.7"/>
      <path fill="#22272E" d="M619.18 194.575c.892-1.652.511-3.587-.85-4.321-1.361-.734-3.187.01-4.078 1.663-.892 1.652-.511 3.587.85 4.321 1.361.734 3.187-.01 4.078-1.663z"/>
      <g>
        <path fill="#EFA9B3" d="M674.842 231.8l-68.5-1.2c-1.1 0-1.999-1-1.899-2.1l1.699-15.4c.1-1 .9-1.7 1.9-1.7l69-2.2c1.2 0 2.1 1 2 2.2l-2.2 18.8c-.1.8-1 1.6-2 1.6z"/>
        <path stroke="#22272E" stroke-linecap="round" stroke-linejoin="round" stroke-miterlimit="10" stroke-width="1.8" d="M624.043 217.9l45.4-.6M623.342 223.7h24.5"/>
        <path fill="#22272E" d="M616.194 222.175c.817-1.691.391-3.588-.952-4.236-1.343-.649-3.093.196-3.91 1.887-.817 1.69-.391 3.587.952 4.235 1.343.649 3.093-.196 3.91-1.886z"/>
      </g>
      <g>
        <path fill="#F43F5E" d="M671.043 263.2l-67.7-5.8c-1.1-.1-1.9-1.1-1.8-2.1l1.7-15.3c.1-1 1-1.8 2-1.7l68.2 2.5c1.1 0 2 1 1.9 2.2l-2.2 18.6c-.1.9-1.1 1.6-2.1 1.6z"/>
        <path stroke="#22272E" stroke-linecap="round" stroke-linejoin="round" stroke-miterlimit="10" stroke-width="1.8" d="M620.943 245.9l44.8 2.4M620.243 251.6l24.2 1.7"/>
        <path fill="#22272E" d="M613.357 248.945c.74-1.726.228-3.601-1.143-4.189-1.37-.587-3.081.336-3.82 2.062-.74 1.726-.228 3.602 1.143 4.189 1.37.587 3.081-.336 3.82-2.062z"/>
      </g>
    </g>
  </g>
</svg>
