<svg xmlns="http://www.w3.org/2000/svg" width="1068" height="136" fill="none" viewBox="0 0 1068 136">
  <g clip-path="url(#clip0_6:361)">
    <path fill="url(#paint0_linear_6:361)" d="M52.581 67.817s-3.284 1.911 2.341 2.557c6.814.778 10.297.666 17.805-.753 0 0 1.979 1.237 4.735 2.309-16.836 7.213-38.104-.418-24.881-4.113zm-2.059-9.415s-3.684 2.729 1.945 3.311c7.28.751 13.027.813 22.979-1.103 0 0 1.373 1.396 3.536 2.157-20.352 5.954-43.021.469-28.46-4.365z"/>
    <path fill="url(#paint1_linear_6:361)" d="M67.865 42.431c4.151 4.778-1.088 9.074-1.088 9.074s10.533-5.437 5.696-12.248c-4.519-6.349-7.982-9.502 10.771-20.378.001 0-29.438 7.35-15.379 23.552z"/>
    <path fill="url(#paint2_linear_6:361)" d="M90.132 74.781s2.432 2.005-2.678 3.555c-9.716 2.943-40.444 3.831-48.979.117-3.066-1.335 2.687-3.187 4.496-3.576 1.887-.409 2.965-.334 2.965-.334-3.412-2.403-22.055 4.719-9.469 6.762 34.324 5.563 62.567-2.506 53.665-6.524zm-35.97-26.134s-15.629 3.713-5.534 5.063c4.264.57 12.758.439 20.676-.225 6.469-.543 12.961-1.704 12.961-1.704s-2.279.978-3.93 2.104c-15.874 4.175-46.533 2.23-37.706-2.038 7.463-3.611 13.533-3.2 13.533-3.2zM82.2 64.317c16.135-8.382 8.674-16.438 3.467-15.353-1.273.266-1.845.496-1.845.496s.475-.744 1.378-1.063c10.302-3.62 18.223 10.681-3.322 16.345 0 0 .247-.224.322-.425z"/>
    <path fill="url(#paint3_linear_6:361)" d="M72.474 1.313s8.935 8.939-8.476 22.682c-13.962 11.027-3.184 17.313-.006 24.498-8.15-7.354-14.128-13.828-10.118-19.852 5.889-8.842 22.204-13.131 18.6-27.328z"/>
    <path fill="url(#paint4_linear_6:361)" d="M55.749 87.039c15.484.99 39.269-.551 39.832-7.878 0 0-1.082 2.777-12.799 4.981-13.218 2.488-29.523 2.199-39.191.603 0 0 1.98 1.64 12.158 2.294z"/>
    <path fill="url(#paint5_linear_6:361)" d="M94.866 100.181h-.472v-.264h1.27v.264h-.47v1.317h-.329l.001-1.317zm2.535.066h-.006l-.468 1.251h-.216l-.465-1.251h-.005v1.251h-.312v-1.581h.457l.431 1.119.432-1.119h.454v1.581h-.302v-1.251zm-44.19 14.79c-1.46 1.266-3.004 1.978-4.391 1.978-1.974 0-3.045-1.186-3.045-3.085 0-2.055 1.146-3.56 5.738-3.56h1.697v4.667h.001zm4.031 4.548v-14.077c0-3.599-2.053-5.973-6.997-5.973-2.886 0-5.416.714-7.473 1.622l.592 2.493c1.62-.595 3.715-1.147 5.771-1.147 2.85 0 4.075 1.147 4.075 3.521v1.779h-1.424c-6.921 0-10.044 2.685-10.044 6.723 0 3.479 2.058 5.456 5.933 5.456 2.49 0 4.351-1.028 6.088-2.533l.316 2.137h3.163v-.001zm13.452 0h-5.027l-6.051-19.689h4.391l3.756 12.099.835 3.635c1.896-5.258 3.24-10.596 3.912-15.733h4.271c-1.143 6.481-3.203 13.598-6.087 19.688zm19.288-4.548c-1.465 1.266-3.01 1.978-4.392 1.978-1.976 0-3.046-1.186-3.046-3.085 0-2.055 1.149-3.56 5.736-3.56h1.701v4.667h.001zm4.033 4.548v-14.077c0-3.599-2.059-5.973-6.999-5.973-2.889 0-5.418.714-7.475 1.622l.593 2.493c1.62-.595 3.718-1.147 5.774-1.147 2.846 0 4.074 1.147 4.074 3.521v1.779h-1.424c-6.923 0-10.045 2.685-10.045 6.723 0 3.479 2.056 5.456 5.93 5.456 2.491 0 4.349-1.028 6.091-2.533l.318 2.137h3.163v-.001zm-56.693 3.346c-1.147 1.679-3.005 3.008-5.037 3.757l-1.989-2.345c1.547-.794 2.872-2.075 3.489-3.269.532-1.063.753-2.43.753-5.701V92.891h4.284v22.173c0 4.375-.348 6.144-1.5 7.867z"/>
    <g>
      <path fill="url(#paint6_linear_6:361)" d="M813.195 0h4.953c12.918.535 25.688 4.89 36.043 12.676 9.809 7.289 17.473 17.437 21.727 28.906 2.441 6.387 3.664 13.18 4.082 19.992v4.211c-.414 11.293-3.664 22.52-9.73 32.082-6.801 10.895-16.922 19.731-28.727 24.828A64.405 64.405 0 01817.082 128h-2.144c-11.735-.191-23.411-3.66-33.297-9.992-11.196-7.113-20.114-17.785-25.028-30.117-2.722-6.7-4.172-13.872-4.613-21.079v-4.956c.504-14.391 5.953-28.61 15.41-39.497 7.758-9.05 18.09-15.879 29.477-19.422C802.172 1.27 807.676.41 813.195 0zm-36.004 37.523c-.031 12.153-.011 24.305-.011 36.454 1.429.011 2.859.011 4.293.011-.075-10.433.101-20.863-.106-31.293.481.907.918 1.84 1.465 2.707C789.035 54.91 795.105 64.5 801.309 74c1.738-.023 3.476-.023 5.214.004-.003-12.16-.007-24.32.004-36.48a308.593 308.593 0 00-4.25-.012c.075 10.32-.136 20.64.125 30.949-6.507-10.352-13.101-20.645-19.695-30.945-1.836-.008-3.68-.012-5.516.007zm38.844-.011c-.129 12.16-.004 24.32-.047 36.476 6.469-.015 12.938.024 19.41-.02a84.036 84.036 0 01.024-3.952c-5.012-.016-10.027.007-15.043-.02-.074-4.21-.004-8.426-.039-12.637 4.394-.078 8.789.012 13.18-.047-.012-1.277-.012-2.554-.02-3.831-4.387.14-8.773-.055-13.164.011.012-4.023.019-8.05.019-12.078 4.7 0 9.399-.02 14.094.012-.008-1.301 0-2.606.016-3.907-6.145-.015-12.289-.007-18.43-.007zm22.602.054c.004 1.266.004 2.528.008 3.79 3.488-.04 6.972.109 10.46.035-.023 10.863.004 21.718-.011 32.574 1.461.043 2.929.035 4.39-.09-.121-5.992.118-11.988-.156-17.977.067-2.699-.07-5.394.117-8.09.106-2.14-.277-4.277-.035-6.417 3.516.047 7.035.015 10.551.015a59.797 59.797 0 01.074-3.832c-8.469-.105-16.937-.093-25.398-.008zm-73.086 31.528c-1.977.91-2.106 4.023-.149 5.027 1.719 1.18 4.305-.371 4.227-2.41.133-2.004-2.289-3.688-4.078-2.617zm29.23 15.289c-4.277 3.469-4.226 11.195.5 14.25 2.668 1.695 6.102 1.344 8.922.215.012-.621.027-1.239.051-1.86-2.672 1.395-6.41 1.68-8.676-.61-2.965-3.237-2.297-9.269 1.613-11.476 2.211-1.164 4.907-.824 7.086.239-.007-.66-.004-1.32 0-1.98-3.097-1.099-6.922-1.04-9.496 1.222zm17.207 2.71c-1.89.22-3.758 1.22-4.633 2.966-1.253 2.496-1.109 5.867.864 7.96 2.035 2.297 5.945 2.321 8.179.297 2.426-2.308 2.7-6.468.758-9.164-1.148-1.629-3.273-2.183-5.168-2.058zm17.887 2.723c-1.66 2.883-1.332 7.25 1.598 9.211 2.183 1.219 4.933.832 7.074-.308-.004-.617.004-1.235.031-1.848-1.687 1.07-3.937 1.856-5.812.777-1.309-.722-1.704-2.257-1.914-3.625 2.875-.039 5.746-.082 8.625-.074-.075-1.828-.118-3.894-1.45-5.308-2.199-2.43-6.644-1.657-8.152 1.175zm-8.414-2.335v12.007c.652 0 1.312 0 1.973.004.023-2.195-.039-4.394.023-6.594.016-1.27.527-2.558 1.484-3.414.801-.605 1.883-.27 2.801-.246-.012-.636-.019-1.27-.023-1.902-1.793-.398-3.336.652-4.242 2.117-.02-.633-.039-1.266-.051-1.894-.656-.024-1.313-.051-1.965-.078z"/>
      <path fill="url(#paint7_linear_6:361)" d="M810.758 89.223c1.652-.805 4.023-.41 4.945 1.3 1.051 1.887 1.027 4.383-.137 6.211-1.519 2.285-5.527 1.785-6.523-.742-1.008-2.258-.617-5.484 1.715-6.77z"/>
      <path fill="url(#paint8_linear_6:361)" d="M831.039 92.414c.047-1.574 1.145-3.137 2.727-3.48.976-.164 2.097.008 2.773.793.672.715.813 1.715.981 2.64-2.161.012-4.321-.031-6.481.047z"/>
    </g>
    <g>
      <path fill="url(#paint9_linear_6:361)" d="M1004 38.04c-33.74 0-61.094 13.861-61.094 30.96 0 17.1 27.354 30.961 61.094 30.961s61.09-13.862 61.09-30.96c0-17.1-27.35-30.962-61.09-30.962zm-15.897 36.992c-1.458 1.364-3.077 1.927-4.86 2.507-1.783.581-4.052.461-6.811.461h-6.253l-1.733 10h-7.301l6.515-34h14.04c4.224 0 7.305 1.215 9.242 3.432 1.937 2.217 2.519 5.364 1.747 9.337-.319 1.637-.856 3.16-1.614 4.515a15.118 15.118 0 01-2.972 3.748zM1009.41 78l2.89-14.42c.32-1.688.2-2.942-.37-3.555-.57-.614-1.78-1.025-3.63-1.025h-5.79l-3.732 19h-7.244l6.515-33h7.241l-1.73 9h6.45c4.07 0 6.87.815 8.41 2.231s2 3.356 1.38 6.528L1016.77 78h-7.36zm40.26-11.178a14.7 14.7 0 01-1.61 4.488c-.76 1.357-1.75 2.598-2.97 3.722-1.46 1.364-3.08 1.927-4.86 2.507-1.78.581-4.05.461-6.81.461h-6.26l-1.73 10h-7.3l6.52-34h14.04c4.22 0 7.3 1.215 9.24 3.432 1.93 2.217 2.52 5.418 1.74 9.39zM1035.92 59h-5l-2.73 14h4.44c2.95 0 5.14-.29 6.58-1.4 1.44-1.108 2.41-2.828 2.92-5.42.48-2.492.26-4.435-.66-5.459-.93-1.024-2.78-1.72-5.55-1.72zm-56.986 0h-5.002l-2.727 14h4.441c2.943 0 5.136-.29 6.577-1.4 1.441-1.108 2.413-2.828 2.917-5.42.484-2.492.264-4.435-.66-5.459s-2.772-1.72-5.546-1.72z"/>
    </g>
    <g>
      <path fill="url(#paint10_linear_6:361)" d="M425.33 70h29.159C462.606 70 469 63.132 469 54.981V27.183c0-7.912-6.632-13.856-14.555-15.176-5.014-.835-10.195-1.215-15.187-1.191-4.99.023-9.612.448-13.805 1.191C413.098 14.188 411 18.758 411 27.183V38h29v4h-40.224c-8.484 0-15.914 5.108-18.237 14.811-2.681 11.12-2.8 17.919 0 29.53 2.075 8.642 7.03 14.659 15.515 14.659H407V87.952C407 78.315 415.428 70 425.33 70zm-1.838-39.11c-3.026 0-5.478-2.479-5.478-5.545 0-3.079 2.451-5.581 5.478-5.581 3.015 0 5.479 2.502 5.479 5.581-.001 3.066-2.465 5.545-5.479 5.545zm74.789 25.921C496.183 48.363 492.178 42 483.682 42H473v12.981C473 65.031 464.206 73 454.489 73H425.33C417.342 73 411 80.326 411 88.326v27.8c0 7.91 6.745 12.564 14.462 14.834 9.242 2.717 17.994 3.208 29.051 0 7.349-2.129 14.487-6.411 14.487-14.834V105h-29v-4h43.682c8.484 0 11.647-5.776 14.599-14.66 3.047-9.145 2.916-17.799 0-29.529zm-41.955 55.606c3.027 0 5.479 2.479 5.479 5.547 0 3.076-2.451 5.579-5.479 5.579-3.015 0-5.478-2.502-5.478-5.579 0-3.068 2.463-5.547 5.478-5.547z"/>
    </g>
    <g>
      <path fill="url(#paint11_linear_6:361)" d="M190 1v125h125V1H190zm66.119 106.513c-1.845 3.749-5.367 6.212-9.448 7.401-6.271 1.44-12.269.619-16.731-2.059-2.986-1.832-5.318-4.652-6.901-7.901l9.52-5.83c.083.035.333.487.667 1.071 1.214 2.034 2.261 3.474 4.319 4.485 2.022.69 6.461 1.131 8.175-2.427 1.047-1.81.714-7.628.714-14.065-.001-10.115.046-20.188.046-30.188h11.709c0 11 .06 21.418 0 32.152.025 6.58.596 12.446-2.07 17.361zm48.574-3.308c-4.07 13.922-26.762 14.374-35.83 5.176-1.916-2.165-3.117-3.296-4.26-5.795 4.819-2.772 4.819-2.772 9.508-5.485 2.547 3.915 4.902 6.068 9.139 6.949 5.748.702 11.531-1.273 10.234-7.378-1.333-4.986-11.77-6.199-18.873-11.531-7.211-4.843-8.901-16.611-2.975-23.335 1.975-2.487 5.343-4.343 8.877-5.235l3.688-.477c7.081-.143 11.507 1.727 14.756 5.355.904.916 1.642 1.904 3.022 4.045-3.772 2.404-3.76 2.381-9.163 5.879-1.154-2.486-3.069-4.046-5.093-4.724-3.142-.952-7.104.083-7.926 3.403-.285 1.023-.226 1.975.227 3.665 1.273 2.903 5.545 4.165 9.377 5.926 11.031 4.474 14.756 9.271 15.672 14.981.882 4.916-.213 8.105-.38 8.581z"/>
    </g>
    <g>
      <path fill="url(#paint12_linear_6:361)" d="M573.032 7l10.005 112.093 44.896 12.401 45.02-12.387L682.968 7H573.032zm89.126 26.539l-.627 7.172-.276 3.289H608.59l1.257 14h50.156l-.336 3.471-3.233 36.119-.238 2.27L628 107.609v.002l-.034.018-28.177-7.423L597.876 79h13.815l.979 10.919L627.957 94H628v-.546l15.355-3.875L644.959 72h-47.698l-3.383-38.117-.329-3.883h68.939l-.33 3.539z"/>
    </g>
  </g>
  <defs>
    <linearGradient id="paint0_linear_6:361" x1="45.54" x2="76.217" y1="58.781" y2="83.101" gradientUnits="userSpaceOnUse">
      <stop offset=".234" stop-color="#F43F5E"/>
      <stop offset="1" stop-color="#FF99B1"/>
    </linearGradient>
    <linearGradient id="paint1_linear_6:361" x1="63.855" x2="91.332" y1="19.628" y2="26.022" gradientUnits="userSpaceOnUse">
      <stop offset=".234" stop-color="#F43F5E"/>
      <stop offset="1" stop-color="#FF99B1"/>
    </linearGradient>
    <linearGradient id="paint2_linear_6:361" x1="31.474" x2="95.16" y1="48.63" y2="93.79" gradientUnits="userSpaceOnUse">
      <stop offset=".234" stop-color="#F43F5E"/>
      <stop offset="1" stop-color="#FF99B1"/>
    </linearGradient>
    <linearGradient id="paint3_linear_6:361" x1="52.356" x2="84.714" y1="2.396" y2="8.415" gradientUnits="userSpaceOnUse">
      <stop offset=".234" stop-color="#F43F5E"/>
      <stop offset="1" stop-color="#FF99B1"/>
    </linearGradient>
    <linearGradient id="paint4_linear_6:361" x1="43.031" x2="53.67" y1="79.348" y2="106.217" gradientUnits="userSpaceOnUse">
      <stop offset=".234" stop-color="#F43F5E"/>
      <stop offset="1" stop-color="#FF99B1"/>
    </linearGradient>
    <linearGradient id="paint5_linear_6:361" x1="29.57" x2="92.273" y1="93.667" y2="143.167" gradientUnits="userSpaceOnUse">
      <stop offset=".234" stop-color="#F43F5E"/>
      <stop offset="1" stop-color="#FF99B1"/>
    </linearGradient>
    <linearGradient id="paint6_linear_6:361" x1="750.622" x2="917.716" y1="2.938" y2="69.077" gradientUnits="userSpaceOnUse">
      <stop offset=".234" stop-color="#F43F5E"/>
      <stop offset="1" stop-color="#FF99B1"/>
    </linearGradient>
    <linearGradient id="paint7_linear_6:361" x1="808.436" x2="819.219" y1="89.037" y2="92.654" gradientUnits="userSpaceOnUse">
      <stop offset=".234" stop-color="#F43F5E"/>
      <stop offset="1" stop-color="#FF99B1"/>
    </linearGradient>
    <linearGradient id="paint8_linear_6:361" x1="830.969" x2="837.382" y1="88.958" y2="93.609" gradientUnits="userSpaceOnUse">
      <stop offset=".234" stop-color="#F43F5E"/>
      <stop offset="1" stop-color="#FF99B1"/>
    </linearGradient>
    <linearGradient id="paint9_linear_6:361" x1="941.591" x2="1056.18" y1="39.46" y2="128.962" gradientUnits="userSpaceOnUse">
      <stop offset=".234" stop-color="#F43F5E"/>
      <stop offset="1" stop-color="#FF99B1"/>
    </linearGradient>
    <linearGradient id="paint10_linear_6:361" x1="378.181" x2="536.647" y1="13.623" y2="75.663" gradientUnits="userSpaceOnUse">
      <stop offset=".234" stop-color="#F43F5E"/>
      <stop offset="1" stop-color="#FF99B1"/>
    </linearGradient>
    <linearGradient id="paint11_linear_6:361" x1="188.655" x2="351.832" y1="3.869" y2="68.458" gradientUnits="userSpaceOnUse">
      <stop offset=".234" stop-color="#F43F5E"/>
      <stop offset="1" stop-color="#FF99B1"/>
    </linearGradient>
    <linearGradient id="paint12_linear_6:361" x1="571.849" x2="719.773" y1="9.857" y2="61.562" gradientUnits="userSpaceOnUse">
      <stop offset=".234" stop-color="#F43F5E"/>
      <stop offset="1" stop-color="#FF99B1"/>
    </linearGradient>
    <clipPath id="clip0_6:361">
      <path fill="#fff" d="M0 0h1068v136H0z"/>
    </clipPath>
  </defs>
</svg>
